<svg xmlns="http://www.w3.org/2000/svg" xmlns:xlink="http://www.w3.org/1999/xlink" width="150" zoomAndPan="magnify" viewBox="0 0 112.5 112.499997" height="150" preserveAspectRatio="xMidYMid meet" version="1.0"><defs><clipPath id="344a943da9"><path d="M 0 0 L 112.003906 0 L 112.003906 112.003906 L 0 112.003906 Z M 0 0 " clip-rule="nonzero"/></clipPath><clipPath id="760cddacb2"><path d="M 8 4.367188 L 107 4.367188 L 107 7 L 8 7 Z M 8 4.367188 " clip-rule="nonzero"/></clipPath><clipPath id="8107ca9847"><path d="M 4.496094 108 L 110 108 L 110 110.394531 L 4.496094 110.394531 Z M 4.496094 108 " clip-rule="nonzero"/></clipPath><clipPath id="f159e35a00"><path d="M 4.496094 91 L 62 91 L 62 110.394531 L 4.496094 110.394531 Z M 4.496094 91 " clip-rule="nonzero"/></clipPath><clipPath id="5a56fd0299"><path d="M 50 91 L 110.523438 91 L 110.523438 110.394531 L 50 110.394531 Z M 50 91 " clip-rule="nonzero"/></clipPath><clipPath id="a5ea0fb208"><path d="M 104 4.367188 L 107 4.367188 L 107 11 L 104 11 Z M 104 4.367188 " clip-rule="nonzero"/></clipPath><clipPath id="1c07c055fa"><path d="M 8 4.367188 L 11 4.367188 L 11 11 L 8 11 Z M 8 4.367188 " clip-rule="nonzero"/></clipPath></defs><g clip-path="url(#344a943da9)"><path fill="#ffffff" d="M 0 0 L 112.003906 0 L 112.003906 112.003906 L 0 112.003906 Z M 0 0 " fill-opacity="1" fill-rule="nonzero"/><path fill="#916128" d="M 0 0 L 112.003906 0 L 112.003906 112.003906 L 0 112.003906 Z M 0 0 " fill-opacity="1" fill-rule="nonzero"/></g><path fill="#ffffff" d="M 47.757812 41.046875 C 48.109375 40.15625 48.136719 39.359375 48.207031 38.371094 C 48.335938 36.472656 48.347656 34.570312 48.363281 32.667969 C 48.378906 30.886719 48.390625 29.109375 48.402344 27.332031 C 48.40625 26.882812 48.355469 26.394531 48.414062 25.953125 C 48.507812 25.234375 49.03125 25.261719 49.625 25.261719 C 52.785156 25.253906 55.949219 25.277344 59.109375 25.289062 C 60.847656 25.292969 62.582031 25.296875 64.320312 25.296875 C 64.847656 25.296875 66.441406 25.03125 66.929688 25.40625 C 67.328125 25.710938 67.121094 27.792969 67.121094 28.324219 C 67.125 30.007812 67.132812 31.695312 67.136719 33.378906 C 67.140625 36.042969 67.265625 38.734375 67.152344 41.394531 C 67.125 42.074219 67.003906 42.28125 66.34375 42.3125 C 65.992188 42.332031 65.636719 42.3125 65.289062 42.3125 C 63.785156 42.308594 62.28125 42.308594 60.777344 42.304688 C 57.449219 42.300781 54.117188 42.296875 50.789062 42.292969 C 50.488281 42.292969 50.1875 42.296875 49.886719 42.292969 C 49.203125 42.28125 48.441406 42.417969 48.402344 41.609375 C 48.347656 40.472656 48.414062 39.316406 48.417969 38.175781 C 48.433594 34.757812 48.402344 31.339844 48.386719 27.921875 C 48.382812 27.675781 48.382812 27.433594 48.382812 27.191406 C 48.390625 25.855469 46.316406 25.855469 46.308594 27.191406 C 46.296875 30.265625 46.230469 33.34375 46.191406 36.417969 C 46.171875 38.011719 46.171875 39.605469 46.167969 41.199219 C 46.164062 41.910156 46.171875 42.640625 46.574219 43.261719 C 47.292969 44.375 48.640625 44.503906 49.851562 44.523438 C 52.714844 44.574219 55.585938 44.527344 58.453125 44.527344 C 60.316406 44.527344 62.175781 44.53125 64.039062 44.53125 C 64.964844 44.53125 65.921875 44.605469 66.84375 44.5 C 68.816406 44.277344 69.371094 42.625 69.367188 40.890625 C 69.363281 39.371094 69.359375 37.847656 69.355469 36.324219 C 69.347656 33.109375 69.371094 29.886719 69.335938 26.671875 C 69.324219 25.695312 69.363281 24.679688 68.625 23.9375 C 67.972656 23.28125 67.054688 23.109375 66.164062 23.082031 C 64.960938 23.042969 63.75 23.082031 62.546875 23.082031 C 58.667969 23.089844 54.789062 23.113281 50.910156 23.125 C 49.519531 23.128906 47.890625 22.941406 46.914062 24.148438 C 45.988281 25.292969 46.300781 27.261719 46.296875 28.648438 C 46.296875 30.75 46.265625 32.847656 46.292969 34.949219 C 46.304688 35.945312 46.304688 36.941406 46.363281 37.9375 C 46.40625 38.675781 46.320312 39.554688 46.492188 40.277344 C 46.550781 40.507812 46.710938 40.785156 46.8125 41.046875 C 46.992188 41.511719 47.574219 41.503906 47.757812 41.046875 " fill-opacity="1" fill-rule="nonzero"/><path fill="#ffffff" d="M 52.589844 43.414062 C 52.21875 44.367188 52.3125 45.511719 52.234375 46.515625 C 52.167969 47.34375 52.058594 48.277344 53.03125 48.605469 C 53.574219 48.789062 54.21875 48.710938 54.785156 48.722656 C 55.585938 48.734375 56.390625 48.734375 57.195312 48.738281 C 58.800781 48.746094 60.410156 48.753906 62.019531 48.761719 C 62.511719 48.765625 62.925781 48.34375 62.929688 47.851562 C 62.941406 46.515625 62.933594 45.171875 62.894531 43.835938 C 62.863281 42.714844 61.195312 42.714844 61.15625 43.835938 C 61.109375 45.171875 61.101562 46.515625 61.105469 47.851562 C 61.410156 47.546875 61.714844 47.242188 62.019531 46.9375 C 59.539062 46.953125 57.058594 46.9375 54.582031 46.992188 C 54.394531 46.996094 53.941406 46.921875 53.777344 47.011719 C 53.550781 46.96875 53.515625 47 53.675781 47.105469 C 53.796875 47.253906 53.816406 47.21875 53.742188 46.992188 C 53.808594 46.683594 53.652344 46.121094 53.632812 45.808594 C 53.582031 45.03125 53.609375 44.164062 53.363281 43.414062 C 53.230469 43.019531 52.734375 43.050781 52.589844 43.414062 " fill-opacity="1" fill-rule="nonzero"/><path fill="#ffffff" d="M 53.59375 47.886719 C 53.261719 48.578125 53.292969 49.570312 53.277344 50.324219 C 53.265625 50.945312 53.511719 51.246094 53.910156 51.703125 C 54.976562 52.910156 56.089844 54.082031 57.199219 55.246094 C 57.511719 55.578125 58.109375 55.585938 58.417969 55.246094 C 59.515625 54.066406 60.585938 52.855469 61.679688 51.671875 C 62.117188 51.199219 62.3125 50.886719 62.320312 50.214844 C 62.335938 49.40625 62.316406 48.597656 62.304688 47.792969 C 62.289062 46.730469 60.640625 46.726562 60.65625 47.792969 C 60.667969 48.542969 60.679688 49.300781 60.675781 50.054688 C 60.671875 50.082031 60.65625 50.574219 60.664062 50.574219 C 60.515625 50.539062 61.136719 50.042969 60.835938 50.15625 C 60.648438 50.230469 60.410156 50.574219 60.269531 50.71875 C 59.238281 51.796875 58.214844 52.898438 57.199219 53.925781 C 57.605469 53.925781 58.011719 53.925781 58.417969 53.925781 C 57.398438 52.898438 56.367188 51.839844 55.347656 50.765625 C 55.203125 50.613281 54.9375 50.226562 54.738281 50.15625 C 54.464844 50.0625 54.777344 50.714844 54.867188 50.539062 C 54.914062 50.441406 54.847656 50.183594 54.84375 50.078125 C 54.8125 49.390625 54.84375 48.515625 54.539062 47.886719 C 54.367188 47.527344 53.769531 47.53125 53.59375 47.886719 " fill-opacity="1" fill-rule="nonzero"/><path fill="#ffffff" d="M 88.914062 79.195312 C 86.386719 78.972656 83.855469 78.945312 81.324219 78.925781 C 76.527344 78.882812 71.730469 78.882812 66.9375 78.882812 C 56.386719 78.878906 45.839844 78.871094 35.289062 78.890625 C 32.253906 78.894531 29.21875 78.890625 26.183594 78.910156 C 24.808594 78.914062 24.804688 81.054688 26.183594 81.046875 C 33.507812 81.007812 40.835938 81.035156 48.160156 81.019531 C 58.707031 80.996094 69.261719 81.046875 79.808594 80.925781 C 82.84375 80.890625 85.890625 80.90625 88.914062 80.609375 C 89.816406 80.523438 89.828125 79.273438 88.914062 79.195312 " fill-opacity="1" fill-rule="nonzero"/><path fill="#ffffff" d="M 88.914062 85.675781 C 86.386719 85.457031 83.855469 85.429688 81.324219 85.40625 C 76.527344 85.363281 71.730469 85.367188 66.9375 85.367188 C 56.386719 85.363281 45.839844 85.355469 35.289062 85.371094 C 32.253906 85.375 29.21875 85.375 26.183594 85.390625 C 24.808594 85.398438 24.804688 87.535156 26.183594 87.53125 C 33.507812 87.492188 40.835938 87.519531 48.160156 87.503906 C 58.707031 87.480469 69.261719 87.53125 79.808594 87.410156 C 82.84375 87.375 85.890625 87.390625 88.914062 87.09375 C 89.816406 87.003906 89.828125 85.757812 88.914062 85.675781 " fill-opacity="1" fill-rule="nonzero"/><path fill="#ffffff" d="M 46.402344 30.761719 C 38.582031 30.757812 30.761719 30.738281 22.941406 30.789062 C 21.566406 30.796875 21.5625 32.933594 22.941406 32.925781 C 30.761719 32.882812 38.582031 32.902344 46.402344 32.886719 C 47.765625 32.882812 47.769531 30.761719 46.402344 30.761719 " fill-opacity="1" fill-rule="nonzero"/><path fill="#ffffff" d="M 92.289062 31.078125 C 90.0625 30.816406 87.535156 30.820312 85.160156 30.792969 C 79.628906 30.726562 74.09375 30.765625 68.5625 30.761719 C 67.195312 30.757812 67.195312 32.886719 68.5625 32.886719 C 74.09375 32.871094 79.628906 32.898438 85.160156 32.816406 C 87.535156 32.78125 90.0625 32.777344 92.289062 32.496094 C 93.195312 32.382812 93.203125 31.1875 92.289062 31.078125 " fill-opacity="1" fill-rule="nonzero"/><path fill="#ffffff" d="M 46.480469 34.882812 C 38.632812 34.878906 30.785156 34.859375 22.941406 34.910156 C 21.566406 34.917969 21.5625 37.054688 22.941406 37.046875 C 30.785156 37.003906 38.632812 37.023438 46.480469 37.007812 C 47.84375 37.003906 47.847656 34.882812 46.480469 34.882812 " fill-opacity="1" fill-rule="nonzero"/><path fill="#ffffff" d="M 92.289062 35.199219 C 90.078125 34.941406 87.5625 34.945312 85.203125 34.914062 C 79.691406 34.847656 74.179688 34.886719 68.667969 34.882812 C 67.300781 34.878906 67.300781 37.007812 68.667969 37.007812 C 74.179688 36.992188 79.691406 37.019531 85.203125 36.9375 C 87.5625 36.902344 90.078125 36.898438 92.289062 36.617188 C 93.195312 36.5 93.203125 35.308594 92.289062 35.199219 " fill-opacity="1" fill-rule="nonzero"/><path fill="#ffffff" d="M 91.46875 10.316406 C 91.492188 13.210938 91.472656 16.105469 91.472656 19 C 91.46875 25.511719 91.464844 32.023438 91.460938 38.535156 C 91.453125 46.273438 91.449219 54.011719 91.445312 61.746094 C 91.441406 68.433594 91.433594 75.117188 91.429688 81.800781 C 91.429688 83.992188 91.4375 86.183594 91.457031 88.371094 C 91.464844 89.414062 91.398438 90.484375 91.484375 91.523438 C 91.488281 91.566406 91.484375 91.613281 91.484375 91.660156 C 91.484375 92.695312 93.09375 92.699219 93.09375 91.660156 C 93.09375 89.007812 93.152344 86.355469 93.152344 83.703125 C 93.152344 77.316406 93.148438 70.925781 93.144531 64.539062 C 93.144531 56.808594 93.140625 49.078125 93.136719 41.347656 C 93.136719 34.554688 93.132812 27.761719 93.128906 20.964844 C 93.125 17.503906 93.226562 14.023438 93.121094 10.5625 C 93.117188 10.480469 93.121094 10.398438 93.117188 10.316406 C 93.113281 9.257812 91.460938 9.253906 91.46875 10.316406 " fill-opacity="1" fill-rule="nonzero"/><path fill="#ffffff" d="M 100.332031 10.316406 C 100.351562 13.210938 100.332031 16.105469 100.332031 19 C 100.328125 25.511719 100.324219 32.023438 100.320312 38.535156 C 100.316406 46.273438 100.3125 54.011719 100.304688 61.746094 C 100.300781 68.433594 100.296875 75.117188 100.289062 81.800781 C 100.289062 83.992188 100.296875 86.183594 100.316406 88.371094 C 100.324219 89.414062 100.261719 90.484375 100.34375 91.523438 C 100.347656 91.566406 100.347656 91.613281 100.347656 91.660156 C 100.34375 92.695312 101.953125 92.699219 101.957031 91.660156 C 101.957031 89.007812 102.015625 86.355469 102.015625 83.703125 C 102.011719 77.316406 102.007812 70.925781 102.007812 64.539062 C 102.003906 56.808594 102 49.078125 102 41.347656 C 101.996094 34.554688 101.992188 27.761719 101.988281 20.964844 C 101.984375 17.503906 102.085938 14.023438 101.980469 10.5625 C 101.976562 10.480469 101.980469 10.398438 101.980469 10.316406 C 101.972656 9.257812 100.324219 9.253906 100.332031 10.316406 " fill-opacity="1" fill-rule="nonzero"/><path fill="#ffffff" d="M 12.957031 10.316406 C 12.976562 13.210938 12.957031 16.105469 12.957031 19 C 12.953125 25.511719 12.949219 32.023438 12.945312 38.535156 C 12.941406 46.273438 12.9375 54.011719 12.929688 61.746094 C 12.925781 68.433594 12.921875 75.117188 12.917969 81.800781 C 12.914062 83.992188 12.921875 86.183594 12.941406 88.371094 C 12.949219 89.414062 12.886719 90.484375 12.96875 91.523438 C 12.972656 91.566406 12.972656 91.613281 12.972656 91.660156 C 12.96875 92.695312 14.578125 92.699219 14.582031 91.660156 C 14.582031 89.007812 14.640625 86.355469 14.640625 83.703125 C 14.636719 77.316406 14.632812 70.925781 14.632812 64.539062 C 14.628906 56.808594 14.625 49.078125 14.625 41.347656 C 14.621094 34.554688 14.617188 27.761719 14.613281 20.964844 C 14.613281 17.503906 14.710938 14.023438 14.605469 10.5625 C 14.601562 10.480469 14.605469 10.398438 14.605469 10.316406 C 14.597656 9.257812 12.949219 9.253906 12.957031 10.316406 " fill-opacity="1" fill-rule="nonzero"/><path fill="#ffffff" d="M 21.753906 10.25 C 21.773438 13.136719 21.753906 16.027344 21.753906 18.914062 C 21.75 25.414062 21.746094 31.914062 21.742188 38.414062 C 21.738281 46.210938 21.734375 54.007812 21.726562 61.804688 C 21.722656 68.476562 21.71875 75.152344 21.710938 81.824219 C 21.710938 85.027344 21.515625 88.328125 21.765625 91.523438 C 21.769531 91.566406 21.765625 91.613281 21.765625 91.660156 C 21.765625 92.695312 23.375 92.699219 23.375 91.660156 C 23.378906 89.011719 23.4375 86.367188 23.433594 83.71875 C 23.433594 77.34375 23.429688 70.96875 23.429688 64.59375 C 23.425781 56.804688 23.421875 49.011719 23.421875 41.222656 C 23.417969 34.441406 23.414062 27.660156 23.410156 20.875 C 23.40625 17.421875 23.507812 13.949219 23.402344 10.496094 C 23.398438 10.414062 23.402344 10.332031 23.402344 10.25 C 23.394531 9.1875 21.746094 9.1875 21.753906 10.25 " fill-opacity="1" fill-rule="nonzero"/><path fill="#ffffff" d="M 105.273438 9.386719 C 101.8125 9.402344 98.355469 9.386719 94.898438 9.386719 C 87.234375 9.382812 79.570312 9.378906 71.910156 9.375 C 62.789062 9.371094 53.671875 9.367188 44.550781 9.359375 C 36.730469 9.355469 28.90625 9.351562 21.082031 9.34375 C 18.53125 9.34375 15.980469 9.351562 13.429688 9.371094 C 12.214844 9.378906 10.996094 9.308594 9.785156 9.398438 C 9.730469 9.402344 9.648438 9.398438 9.648438 9.398438 C 8.617188 9.398438 8.617188 11.007812 9.648438 11.007812 C 12.738281 11.011719 15.835938 11.070312 18.9375 11.070312 C 26.421875 11.066406 33.890625 11.0625 41.371094 11.0625 C 50.480469 11.058594 59.582031 11.054688 68.691406 11.050781 C 76.675781 11.050781 84.65625 11.046875 92.640625 11.042969 C 96.742188 11.039062 100.851562 11.128906 104.953125 11.035156 C 105.058594 11.03125 105.164062 11.035156 105.273438 11.035156 C 106.332031 11.027344 106.335938 9.378906 105.273438 9.386719 " fill-opacity="1" fill-rule="nonzero"/><g clip-path="url(#760cddacb2)"><path fill="#ffffff" d="M 105.273438 4.644531 C 101.8125 4.664062 98.355469 4.648438 94.898438 4.648438 C 87.234375 4.644531 79.570312 4.640625 71.910156 4.636719 C 62.789062 4.628906 53.671875 4.625 44.550781 4.621094 C 36.730469 4.613281 28.90625 4.609375 21.082031 4.605469 C 18.53125 4.605469 15.980469 4.613281 13.429688 4.632812 C 12.214844 4.640625 10.996094 4.570312 9.785156 4.660156 C 9.730469 4.664062 9.648438 4.660156 9.648438 4.660156 C 8.617188 4.660156 8.617188 6.269531 9.648438 6.269531 C 12.738281 6.269531 15.835938 6.328125 18.9375 6.328125 C 26.421875 6.328125 33.890625 6.324219 41.371094 6.320312 C 50.480469 6.320312 59.582031 6.316406 68.691406 6.3125 C 76.675781 6.308594 84.65625 6.308594 92.640625 6.304688 C 96.742188 6.300781 100.851562 6.390625 104.953125 6.296875 C 105.058594 6.292969 105.164062 6.296875 105.273438 6.292969 C 106.332031 6.289062 106.335938 4.640625 105.273438 4.644531 " fill-opacity="1" fill-rule="nonzero"/></g><path fill="#ffffff" d="M 25.308594 79.175781 C 24.957031 80.328125 25.0625 81.535156 25.066406 82.730469 C 25.074219 84.003906 25.058594 85.277344 25.027344 86.546875 C 25.003906 87.675781 26.753906 87.675781 26.78125 86.546875 C 26.8125 85.210938 26.800781 83.878906 26.742188 82.542969 C 26.6875 81.34375 26.644531 80.167969 26.144531 79.066406 C 25.972656 78.6875 25.414062 78.828125 25.308594 79.175781 " fill-opacity="1" fill-rule="nonzero"/><path fill="#ffffff" d="M 88.609375 79.671875 C 87.980469 81.6875 88.203125 84.097656 88.101562 86.191406 C 88.050781 87.171875 89.636719 87.183594 89.632812 86.191406 C 89.625 84.09375 89.964844 81.710938 89.429688 79.671875 C 89.320312 79.253906 88.734375 79.28125 88.609375 79.671875 " fill-opacity="1" fill-rule="nonzero"/><path fill="#ffffff" d="M 65.453125 96.3125 C 62.273438 95.695312 58.835938 95.988281 55.609375 95.992188 C 50.910156 95.992188 46.210938 95.988281 41.507812 96.011719 C 40.128906 96.019531 38.746094 96.015625 37.363281 96.042969 C 35.988281 96.066406 35.984375 98.203125 37.363281 98.179688 C 45.335938 98.050781 53.316406 98.242188 61.285156 98.027344 C 62.679688 97.988281 64.09375 97.992188 65.453125 97.679688 C 66.117188 97.527344 66.144531 96.445312 65.453125 96.3125 " fill-opacity="1" fill-rule="nonzero"/><path fill="#ffffff" d="M 65.703125 103.066406 C 64.621094 102.863281 63.433594 102.804688 62.167969 102.78125 C 59.976562 102.742188 57.789062 102.746094 55.597656 102.746094 C 50.761719 102.746094 45.925781 102.742188 41.089844 102.765625 C 39.683594 102.773438 38.277344 102.769531 36.871094 102.796875 C 35.496094 102.820312 35.492188 104.957031 36.871094 104.933594 C 45.0625 104.800781 53.265625 104.996094 61.457031 104.78125 C 62.875 104.742188 64.3125 104.742188 65.703125 104.433594 C 66.363281 104.28125 66.390625 103.195312 65.703125 103.066406 " fill-opacity="1" fill-rule="nonzero"/><path fill="#ffffff" d="M 36.230469 96.433594 C 35.816406 97.636719 35.910156 98.921875 35.902344 100.175781 C 35.898438 101.449219 35.875 102.722656 35.867188 104 C 35.859375 105.125 37.609375 105.128906 37.617188 104 C 37.628906 102.722656 37.628906 101.449219 37.589844 100.175781 C 37.546875 98.921875 37.574219 97.613281 37.113281 96.433594 C 36.949219 96.015625 36.386719 95.988281 36.230469 96.433594 " fill-opacity="1" fill-rule="nonzero"/><path fill="#ffffff" d="M 65.152344 96.699219 C 64.546875 98.773438 64.796875 101.304688 64.726562 103.449219 C 64.695312 104.4375 66.277344 104.441406 66.257812 103.449219 C 66.21875 101.304688 66.550781 98.78125 65.972656 96.699219 C 65.859375 96.289062 65.269531 96.300781 65.152344 96.699219 " fill-opacity="1" fill-rule="nonzero"/><g clip-path="url(#8107ca9847)"><path fill="#ffffff" d="M 108.90625 108.070312 C 102.167969 108.039062 95.433594 108.039062 88.695312 108.035156 C 80.207031 108.035156 71.71875 108.03125 63.226562 108.03125 C 54.734375 108.03125 46.246094 108.023438 37.753906 108.027344 C 30.859375 108.035156 23.964844 108.039062 17.070312 108.042969 C 13.511719 108.046875 9.945312 107.992188 6.386719 108.058594 C 6.253906 108.058594 6.121094 108.058594 5.988281 108.058594 C 4.613281 108.066406 4.609375 110.203125 5.988281 110.199219 C 9.011719 110.179688 12.03125 110.191406 15.054688 110.1875 C 21.621094 110.183594 28.1875 110.183594 34.753906 110.179688 C 43.128906 110.175781 51.503906 110.167969 59.882812 110.15625 C 68.472656 110.148438 77.058594 110.140625 85.648438 110.128906 C 92.695312 110.121094 99.742188 110.121094 106.789062 110.082031 C 107.496094 110.074219 108.199219 110.070312 108.90625 110.066406 C 110.191406 110.058594 110.191406 108.078125 108.90625 108.070312 " fill-opacity="1" fill-rule="nonzero"/></g><g clip-path="url(#f159e35a00)"><path fill="#ffffff" d="M 60.90625 91.527344 C 51.640625 91.535156 42.375 91.515625 33.113281 91.503906 C 26.894531 91.496094 20.664062 91.375 14.445312 91.480469 C 13.414062 91.5 12.3125 91.59375 11.417969 92.148438 C 9.964844 93.050781 9.523438 94.886719 9.023438 96.398438 C 7.632812 100.589844 6.226562 104.78125 4.863281 108.984375 C 4.515625 110.058594 6.207031 110.519531 6.554688 109.449219 C 7.726562 105.828125 8.933594 102.214844 10.132812 98.605469 C 10.414062 97.765625 10.691406 96.925781 10.96875 96.089844 C 11.214844 95.347656 11.449219 94.464844 12.023438 93.898438 C 12.660156 93.269531 13.613281 93.25 14.457031 93.234375 C 16.363281 93.203125 18.269531 93.234375 20.175781 93.234375 C 29.046875 93.222656 37.917969 93.207031 46.789062 93.195312 C 51.496094 93.183594 56.199219 93.179688 60.90625 93.175781 C 61.964844 93.175781 61.96875 91.527344 60.90625 91.527344 " fill-opacity="1" fill-rule="nonzero"/></g><g clip-path="url(#5a56fd0299)"><path fill="#ffffff" d="M 51.242188 93.175781 C 60.464844 93.183594 69.6875 93.199219 78.910156 93.210938 C 85.941406 93.222656 92.972656 93.234375 100.003906 93.234375 C 100.171875 93.234375 100.335938 93.230469 100.503906 93.234375 C 101.324219 93.25 102.246094 93.285156 102.867188 93.898438 C 103.488281 94.511719 103.71875 95.480469 103.984375 96.28125 C 105.441406 100.671875 106.910156 105.050781 108.335938 109.449219 C 108.683594 110.515625 110.375 110.0625 110.027344 108.984375 C 108.726562 104.972656 107.386719 100.976562 106.058594 96.976562 C 105.578125 95.535156 105.214844 93.78125 104.105469 92.660156 C 103.152344 91.695312 101.792969 91.507812 100.496094 91.480469 C 98.597656 91.445312 96.691406 91.480469 94.792969 91.484375 C 85.238281 91.496094 75.6875 91.511719 66.132812 91.523438 C 61.167969 91.527344 56.203125 91.53125 51.242188 91.527344 C 50.179688 91.527344 50.179688 93.175781 51.242188 93.175781 " fill-opacity="1" fill-rule="nonzero"/></g><path fill="#ffffff" d="M 57.105469 9.890625 C 55.152344 11.523438 55.375 14.46875 56.683594 16.433594 C 57.445312 17.578125 58.632812 18.429688 58.378906 19.96875 C 58.113281 21.570312 56.71875 22.453125 55.320312 22.976562 C 54.449219 23.300781 54.78125 24.65625 55.710938 24.394531 C 58.199219 23.691406 60.441406 21.347656 59.777344 18.59375 C 59.441406 17.207031 58.25 16.367188 57.582031 15.167969 C 56.707031 13.59375 56.707031 11.886719 57.761719 10.398438 C 58.054688 9.988281 57.445312 9.609375 57.105469 9.890625 " fill-opacity="1" fill-rule="nonzero"/><path fill="#ffffff" d="M 59.300781 10.035156 C 58.675781 11.089844 58.3125 12.273438 58.453125 13.507812 C 58.566406 14.523438 59.222656 15.347656 59.847656 16.121094 C 60.777344 17.273438 61.472656 18.203125 61.472656 19.75 C 61.472656 21.175781 60.828125 22.609375 59.648438 23.449219 C 58.871094 24.003906 59.617188 25.300781 60.402344 24.738281 C 62.582031 23.183594 63.492188 20.335938 62.644531 17.785156 C 62.21875 16.507812 61.203125 15.636719 60.441406 14.566406 C 59.515625 13.269531 59.628906 12.0625 60.277344 10.605469 C 60.570312 9.953125 59.683594 9.394531 59.300781 10.035156 " fill-opacity="1" fill-rule="nonzero"/><path fill="#ffffff" d="M 34.179688 86.464844 C 33.839844 87.195312 33.804688 88.015625 33.796875 88.8125 C 33.785156 89.625 33.738281 90.453125 33.792969 91.265625 C 33.871094 92.332031 35.382812 92.332031 35.457031 91.265625 C 35.511719 90.453125 35.464844 89.625 35.449219 88.8125 C 35.433594 88.015625 35.402344 87.195312 35.058594 86.464844 C 34.902344 86.132812 34.335938 86.128906 34.179688 86.464844 " fill-opacity="1" fill-rule="nonzero"/><path fill="#ffffff" d="M 37.683594 86.464844 C 37.34375 87.195312 37.308594 88.015625 37.296875 88.8125 C 37.289062 89.625 37.238281 90.453125 37.296875 91.265625 C 37.375 92.332031 38.886719 92.332031 38.960938 91.265625 C 39.015625 90.453125 38.96875 89.625 38.953125 88.8125 C 38.9375 88.015625 38.90625 87.195312 38.5625 86.464844 C 38.40625 86.132812 37.839844 86.128906 37.683594 86.464844 " fill-opacity="1" fill-rule="nonzero"/><path fill="#ffffff" d="M 77.457031 86.464844 C 77.113281 87.195312 77.082031 88.015625 77.070312 88.8125 C 77.058594 89.625 77.011719 90.453125 77.070312 91.265625 C 77.148438 92.332031 78.65625 92.332031 78.730469 91.265625 C 78.789062 90.453125 78.738281 89.625 78.726562 88.8125 C 78.710938 88.015625 78.675781 87.195312 78.335938 86.464844 C 78.179688 86.132812 77.609375 86.128906 77.457031 86.464844 " fill-opacity="1" fill-rule="nonzero"/><path fill="#ffffff" d="M 80.960938 86.464844 C 80.617188 87.195312 80.585938 88.015625 80.574219 88.8125 C 80.5625 89.625 80.515625 90.453125 80.574219 91.265625 C 80.652344 92.332031 82.160156 92.332031 82.234375 91.265625 C 82.289062 90.453125 82.242188 89.625 82.226562 88.8125 C 82.214844 88.015625 82.179688 87.195312 81.835938 86.464844 C 81.679688 86.132812 81.113281 86.128906 80.960938 86.464844 " fill-opacity="1" fill-rule="nonzero"/><path fill="#ffffff" d="M 28.824219 92.300781 C 28.21875 97.769531 28.5625 103.367188 28.59375 108.859375 C 28.601562 109.929688 30.261719 109.929688 30.253906 108.859375 C 30.226562 103.367188 30.507812 97.761719 29.84375 92.300781 C 29.761719 91.652344 28.898438 91.644531 28.824219 92.300781 " fill-opacity="1" fill-rule="nonzero"/><path fill="#ffffff" d="M 84.304688 92.300781 C 83.695312 97.769531 84.042969 103.367188 84.074219 108.859375 C 84.078125 109.929688 85.738281 109.929688 85.734375 108.859375 C 85.703125 103.367188 85.988281 97.761719 85.320312 92.300781 C 85.242188 91.652344 84.375 91.644531 84.304688 92.300781 " fill-opacity="1" fill-rule="nonzero"/><g clip-path="url(#a5ea0fb208)"><path fill="#ffffff" d="M 104.519531 5.371094 C 104.460938 6.871094 104.492188 8.375 104.402344 9.871094 C 104.339844 10.933594 105.988281 10.929688 106.050781 9.871094 C 106.140625 8.378906 106.136719 6.867188 106.089844 5.371094 C 106.058594 4.359375 104.558594 4.359375 104.519531 5.371094 " fill-opacity="1" fill-rule="nonzero"/></g><g clip-path="url(#1c07c055fa)"><path fill="#ffffff" d="M 8.902344 5.371094 C 8.84375 6.871094 8.871094 8.375 8.785156 9.871094 C 8.722656 10.933594 10.371094 10.929688 10.433594 9.871094 C 10.519531 8.378906 10.519531 6.867188 10.472656 5.371094 C 10.4375 4.359375 8.941406 4.359375 8.902344 5.371094 " fill-opacity="1" fill-rule="nonzero"/></g><path fill="#ffffff" d="M 77.523438 97.800781 C 76.292969 95.539062 72.863281 95.25 71.113281 97.074219 C 69.414062 98.84375 69.289062 101.589844 71.046875 103.363281 C 72.78125 105.113281 75.546875 105.148438 77.394531 103.5625 C 79.394531 101.851562 79.441406 98.707031 77.46875 96.9375 C 75.507812 95.175781 71.910156 95.347656 70.859375 98 C 70.589844 98.6875 71.566406 99.136719 72.035156 98.683594 C 73.21875 97.539062 75.46875 97.261719 76.476562 98.851562 C 77.480469 100.425781 76.308594 102.5 74.5 102.640625 C 72.996094 102.753906 71.484375 101.359375 71.722656 99.820312 C 71.863281 98.90625 72.460938 97.910156 73.386719 97.613281 C 74.394531 97.289062 76.046875 97.652344 76.855469 98.316406 C 77.21875 98.609375 77.769531 98.246094 77.523438 97.800781 " fill-opacity="1" fill-rule="nonzero"/></svg>