<svg xmlns="http://www.w3.org/2000/svg" xmlns:xlink="http://www.w3.org/1999/xlink" width="150" zoomAndPan="magnify" viewBox="0 0 112.5 112.499997" height="150" preserveAspectRatio="xMidYMid meet" version="1.0"><defs><clipPath id="1bd0eef989"><path d="M 0 0 L 112.003906 0 L 112.003906 112.003906 L 0 112.003906 Z M 0 0 " clip-rule="nonzero"/></clipPath><clipPath id="69140e9b72"><path d="M 9.335938 3.507812 L 97.445312 3.507812 L 97.445312 108.789062 L 9.335938 108.789062 Z M 9.335938 3.507812 " clip-rule="nonzero"/></clipPath></defs><g clip-path="url(#1bd0eef989)"><path fill="#ffffff" d="M 0 0 L 112.003906 0 L 112.003906 112.003906 L 0 112.003906 Z M 0 0 " fill-opacity="1" fill-rule="nonzero"/><path fill="#916128" d="M 0 0 L 112.003906 0 L 112.003906 112.003906 L 0 112.003906 Z M 0 0 " fill-opacity="1" fill-rule="nonzero"/></g><g clip-path="url(#69140e9b72)"><path fill="#ffffff" d="M 77.074219 84.390625 L 69.628906 82.484375 L 62.566406 78.667969 L 62.566406 73.523438 C 64.347656 71.601562 65.523438 69.113281 65.785156 66.355469 L 66.792969 66.355469 C 69.332031 66.355469 71.394531 64.289062 71.394531 61.753906 C 71.394531 60.265625 70.683594 58.945312 69.585938 58.101562 C 70.007812 56.136719 70.226562 53.972656 70.226562 51.789062 C 70.226562 49.675781 70.03125 47.632812 69.636719 45.714844 C 68.671875 41.003906 64.804688 37.578125 60.011719 37.195312 C 55.242188 36.8125 50.167969 37.902344 46.773438 40.039062 C 46.402344 40.273438 46.03125 40.328125 45.613281 40.210938 C 45.023438 40.050781 44.414062 39.96875 43.796875 39.96875 C 40.003906 39.96875 36.914062 43.058594 36.914062 46.855469 L 36.914062 58.699219 C 36.191406 59.515625 35.746094 60.582031 35.746094 61.753906 C 35.746094 64.292969 37.8125 66.355469 40.351562 66.355469 L 41.355469 66.355469 C 41.617188 69.109375 42.792969 71.601562 44.574219 73.523438 L 44.574219 78.667969 L 37.511719 82.484375 L 30.066406 84.390625 C 25.503906 85.5625 22.4375 89.507812 22.4375 94.21875 L 22.4375 107.179688 C 22.4375 107.898438 23.023438 108.484375 23.746094 108.484375 L 83.394531 108.484375 C 84.113281 108.484375 84.699219 107.898438 84.699219 107.179688 L 84.699219 94.21875 C 84.699219 89.511719 81.636719 85.5625 77.074219 84.390625 Z M 52.25 98.507812 L 54.890625 98.507812 L 58.210938 105.871094 L 48.929688 105.871094 Z M 54.867188 95.894531 L 52.273438 95.894531 L 50.417969 91.488281 L 53.574219 89.554688 L 56.730469 91.488281 Z M 47.191406 75.664062 C 49.050781 76.800781 51.234375 77.457031 53.570312 77.457031 C 55.90625 77.457031 58.089844 76.800781 59.949219 75.664062 L 59.949219 78.949219 L 53.570312 86.066406 L 47.191406 78.949219 Z M 55.589844 87.726562 L 61.542969 81.089844 L 67.078125 84.078125 L 60.953125 91.015625 Z M 66.792969 63.742188 L 65.839844 63.742188 L 65.839844 59.761719 L 66.792969 59.761719 C 67.890625 59.761719 68.78125 60.652344 68.78125 61.75 C 68.78125 62.847656 67.890625 63.742188 66.792969 63.742188 Z M 38.359375 61.753906 C 38.359375 60.65625 39.253906 59.761719 40.351562 59.761719 L 41.300781 59.761719 L 41.300781 63.746094 L 40.351562 63.746094 C 39.253906 63.742188 38.359375 62.851562 38.359375 61.753906 Z M 41.960938 50.832031 C 41.554688 51.0625 41.300781 51.496094 41.300781 51.96875 L 41.300781 57.148438 L 40.351562 57.148438 C 40.070312 57.148438 39.796875 57.175781 39.527344 57.226562 L 39.527344 46.855469 C 39.527344 44.5 41.445312 42.585938 43.796875 42.585938 C 44.179688 42.585938 44.554688 42.636719 44.921875 42.734375 C 46.050781 43.046875 47.175781 42.878906 48.167969 42.253906 C 51.0625 40.429688 55.632812 39.464844 59.804688 39.800781 C 63.484375 40.097656 66.339844 42.625 67.078125 46.238281 C 67.433594 47.984375 67.613281 49.851562 67.613281 51.789062 C 67.613281 53.648438 67.4375 55.484375 67.105469 57.167969 C 67.003906 57.160156 66.894531 57.152344 66.789062 57.152344 L 65.839844 57.152344 L 65.839844 51.378906 C 65.839844 51 65.671875 50.632812 65.382812 50.386719 C 65.09375 50.136719 64.707031 50.03125 64.332031 50.085938 C 62.410156 50.390625 61.054688 50.929688 59.742188 51.453125 C 57.851562 52.203125 56.066406 52.914062 52.488281 52.914062 C 48.886719 52.914062 45.445312 52.140625 43.277344 50.84375 C 42.871094 50.605469 42.371094 50.601562 41.960938 50.832031 Z M 43.914062 54.050781 C 46.3125 55.003906 49.320312 55.53125 52.488281 55.53125 C 56.566406 55.53125 58.671875 54.691406 60.707031 53.882812 C 61.523438 53.558594 62.3125 53.242188 63.226562 52.996094 L 63.226562 65.191406 C 63.226562 70.515625 58.894531 74.847656 53.570312 74.847656 C 48.242188 74.847656 43.910156 70.515625 43.910156 65.191406 L 43.910156 54.050781 Z M 45.597656 81.089844 L 51.550781 87.726562 L 46.191406 91.015625 L 40.0625 84.078125 Z M 25.054688 94.21875 C 25.054688 90.726562 27.332031 87.792969 30.71875 86.925781 L 37.546875 85.171875 L 44.957031 93.570312 C 45.210938 93.859375 45.574219 94.011719 45.9375 94.011719 C 46.171875 94.011719 46.40625 93.949219 46.617188 93.820312 L 48.164062 92.871094 L 49.980469 97.183594 L 46.0625 105.871094 L 34.976562 105.871094 L 34.976562 100.046875 C 34.976562 99.324219 34.390625 98.738281 33.667969 98.738281 C 32.949219 98.738281 32.363281 99.324219 32.363281 100.046875 L 32.363281 105.871094 L 25.054688 105.871094 Z M 82.085938 105.871094 L 74.78125 105.871094 L 74.78125 100.046875 C 74.78125 99.324219 74.195312 98.738281 73.472656 98.738281 C 72.753906 98.738281 72.167969 99.324219 72.167969 100.046875 L 72.167969 105.871094 L 61.078125 105.871094 L 57.164062 97.183594 L 58.980469 92.871094 L 60.523438 93.820312 C 60.734375 93.949219 60.972656 94.011719 61.203125 94.011719 C 61.570312 94.011719 61.929688 93.859375 62.183594 93.570312 L 69.597656 85.171875 L 76.425781 86.925781 C 79.8125 87.789062 82.085938 90.726562 82.085938 94.21875 Z M 45.066406 23.160156 L 43.128906 32.75 C 43.027344 33.25 43.226562 33.765625 43.640625 34.0625 C 44.054688 34.363281 44.605469 34.398438 45.054688 34.144531 L 53.570312 29.339844 L 62.089844 34.144531 C 62.289062 34.257812 62.511719 34.3125 62.730469 34.3125 C 63 34.3125 63.273438 34.226562 63.5 34.0625 C 63.914062 33.761719 64.113281 33.246094 64.011719 32.746094 L 62.074219 23.160156 L 69.277344 16.542969 C 69.65625 16.195312 69.792969 15.664062 69.636719 15.175781 C 69.480469 14.691406 69.050781 14.339844 68.542969 14.28125 L 58.828125 13.164062 L 54.761719 4.265625 C 54.546875 3.804688 54.082031 3.507812 53.570312 3.507812 C 53.058594 3.507812 52.59375 3.804688 52.382812 4.273438 L 48.316406 13.167969 L 38.597656 14.285156 C 38.089844 14.34375 37.664062 14.695312 37.503906 15.179688 C 37.34375 15.667969 37.488281 16.203125 37.863281 16.546875 Z M 49.347656 15.679688 C 49.804688 15.628906 50.199219 15.339844 50.386719 14.925781 L 53.570312 7.957031 L 56.753906 14.925781 C 56.945312 15.339844 57.339844 15.628906 57.792969 15.679688 L 65.402344 16.554688 L 59.761719 21.738281 C 59.425781 22.046875 59.273438 22.511719 59.367188 22.957031 L 60.882812 30.464844 L 54.214844 26.703125 C 54.011719 26.589844 53.792969 26.535156 53.570312 26.535156 C 53.347656 26.535156 53.128906 26.589844 52.929688 26.703125 L 46.257812 30.464844 L 47.773438 22.957031 C 47.867188 22.511719 47.714844 22.046875 47.378906 21.738281 L 41.738281 16.554688 Z M 29.429688 47.730469 C 29.628906 47.84375 29.851562 47.898438 30.070312 47.898438 C 30.339844 47.898438 30.609375 47.8125 30.839844 47.644531 C 31.253906 47.347656 31.453125 46.832031 31.351562 46.332031 L 29.820312 38.777344 L 35.5 33.5625 C 35.878906 33.21875 36.015625 32.683594 35.859375 32.199219 C 35.699219 31.710938 35.273438 31.363281 34.765625 31.304688 L 27.109375 30.421875 L 23.90625 23.410156 C 23.691406 22.945312 23.226562 22.648438 22.714844 22.648438 C 22.203125 22.648438 21.738281 22.945312 21.527344 23.410156 L 18.324219 30.421875 L 10.664062 31.304688 C 10.15625 31.363281 9.730469 31.710938 9.570312 32.199219 C 9.414062 32.683594 9.554688 33.21875 9.929688 33.5625 L 15.609375 38.777344 L 14.078125 46.332031 C 13.976562 46.832031 14.179688 47.347656 14.589844 47.648438 C 15.003906 47.949219 15.554688 47.980469 16.003906 47.730469 L 22.71875 43.9375 Z M 17.207031 44.046875 L 18.3125 38.574219 C 18.40625 38.125 18.253906 37.660156 17.917969 37.351562 L 13.800781 33.570312 L 19.351562 32.933594 C 19.808594 32.882812 20.203125 32.59375 20.390625 32.179688 L 22.714844 27.097656 L 25.035156 32.179688 C 25.222656 32.59375 25.617188 32.882812 26.074219 32.933594 L 31.625 33.570312 L 27.511719 37.351562 C 27.175781 37.660156 27.023438 38.125 27.113281 38.574219 L 28.222656 44.050781 L 23.359375 41.304688 C 23.15625 41.191406 22.9375 41.136719 22.714844 41.136719 C 22.492188 41.136719 22.273438 41.191406 22.074219 41.304688 Z M 97.574219 32.195312 C 97.414062 31.710938 96.988281 31.359375 96.480469 31.300781 L 88.820312 30.421875 L 85.617188 23.410156 C 85.40625 22.945312 84.941406 22.644531 84.429688 22.644531 C 83.917969 22.644531 83.453125 22.945312 83.238281 23.410156 L 80.035156 30.421875 L 72.378906 31.300781 C 71.871094 31.359375 71.445312 31.707031 71.285156 32.195312 C 71.125 32.679688 71.265625 33.21875 71.644531 33.5625 L 77.320312 38.777344 L 75.792969 46.332031 C 75.691406 46.832031 75.890625 47.347656 76.304688 47.644531 C 76.71875 47.945312 77.269531 47.976562 77.714844 47.726562 L 84.429688 43.9375 L 91.144531 47.726562 C 91.347656 47.839844 91.566406 47.894531 91.789062 47.894531 C 92.058594 47.894531 92.328125 47.808594 92.558594 47.644531 C 92.96875 47.34375 93.171875 46.828125 93.070312 46.328125 L 91.539062 38.773438 L 97.214844 33.5625 C 97.589844 33.21875 97.730469 32.683594 97.574219 32.195312 Z M 89.222656 37.351562 C 88.886719 37.660156 88.738281 38.125 88.828125 38.574219 L 89.9375 44.050781 L 85.070312 41.304688 C 84.871094 41.191406 84.652344 41.136719 84.429688 41.136719 C 84.207031 41.136719 83.988281 41.191406 83.785156 41.304688 L 78.921875 44.050781 L 80.027344 38.574219 C 80.121094 38.125 79.96875 37.660156 79.632812 37.351562 L 75.519531 33.570312 L 81.070312 32.933594 C 81.523438 32.882812 81.917969 32.59375 82.109375 32.179688 L 84.429688 27.097656 L 86.753906 32.179688 C 86.941406 32.59375 87.335938 32.882812 87.792969 32.933594 L 93.34375 33.570312 Z M 89.222656 37.351562 " fill-opacity="1" fill-rule="nonzero"/></g></svg>